# xmcd
#
# Track frame offsets: 
#        150
#        12562
#        26590
#        38897
#        50399
#        63331
#        79822
#        98517
#        113079
#        126566
#        141268
#
# Disc length: 2060 seconds
#
# Revision: 0
# Processed by: cddbd v1.5.2PL0 Copyright (c) Steve Scherf et al.
# Submitted via: ExactAudioCopyFreeDBPlugin 1.0
#
DISCID=92080a0b
DTITLE=grupe Karcemele - Irasai is ivairiu koncertu
DYEAR=2013
DGENRE=Country
TTITLE0=Prerijos
TTITLE1=Gelmes
TTITLE2=Lauku mergina
TTITLE3=On the Road Again
TTITLE4=Country muzikos ritmu
TTITLE5=Tu isgirsk mane
TTITLE6=Gatviu zibintai
TTITLE7=Kaimo vaikas
TTITLE8=Bliuzpolke
TTITLE9=Sok, mielas, sok
TTITLE10=Polka ''Galaliu geguzine''
EXTD=
EXTT0=
EXTT1=
EXTT2=
EXTT3=
EXTT4=
EXTT5=
EXTT6=
EXTT7=
EXTT8=
EXTT9=
EXTT10=
PLAYORDER=
